HIERARCHY
ROOT Hips
{
  OFFSET 14.9337 39.7791 -6.93208
  CHANNELS 6 Xposition Yposition Zposition Zrotation Xrotation Yrotation
  JOINT LeftHip
  {
    OFFSET 3.43 0 0
    CHANNELS 6 Xposition Yposition Zposition Zrotation Xrotation Yrotation
    JOINT LeftKnee
    {
      OFFSET 0 -18.47 0
      CHANNELS 6 Xposition Yposition Zposition Zrotation Xrotation Yrotation
      JOINT LeftAnkle
      {
        OFFSET 0 -17.95 0
        CHANNELS 6 Xposition Yposition Zposition Zrotation Xrotation Yrotation
        End Site
        {
          OFFSET 0 -3.12 0
        }
      }
    }
  }
  JOINT RightHip
  {
    OFFSET -3.43 0 0
    CHANNELS 6 Xposition Yposition Zposition Zrotation Xrotation Yrotation
    JOINT RightKnee
    {
      OFFSET 0 -18.47 0
      CHANNELS 6 Xposition Yposition Zposition Zrotation Xrotation Yrotation
      JOINT RightAnkle
      {
        OFFSET 0 -17.95 0
        CHANNELS 6 Xposition Yposition Zposition Zrotation Xrotation Yrotation
        End Site
        {
          OFFSET 0 -3.12 0
        }
      }
    }
  }
  JOINT Chest
  {
    OFFSET 0 4.57 0
    CHANNELS 6 Xposition Yposition Zposition Zrotation Xrotation Yrotation
    JOINT CS_BVH
    {
      OFFSET 0 6.57 0
      CHANNELS 6 Xposition Yposition Zposition Zrotation Xrotation Yrotation
      JOINT LeftCollar
      {
        OFFSET 1.06 4.19 1.76
        CHANNELS 6 Xposition Yposition Zposition Zrotation Xrotation Yrotation
        JOINT LeftShoulder
        {
          OFFSET 5.81 0 0
          CHANNELS 6 Xposition Yposition Zposition Zrotation Xrotation Yrotation
          JOINT LeftElbow
          {
            OFFSET 0 -12.08 0
            CHANNELS 6 Xposition Yposition Zposition Zrotation Xrotation Yrotation
            JOINT LeftWrist
            {
              OFFSET 0 -9.82 0
              CHANNELS 6 Xposition Yposition Zposition Zrotation Xrotation Yrotation
              End Site
              {
                OFFSET 0 -7.37 0
              }
            }
          }
        }
      }
      JOINT RightCollar
      {
        OFFSET -1.06 4.19 1.76
        CHANNELS 6 Xposition Yposition Zposition Zrotation Xrotation Yrotation
        JOINT RightShoulder
        {
          OFFSET -6.06 0 0
          CHANNELS 6 Xposition Yposition Zposition Zrotation Xrotation Yrotation
          JOINT RightElbow
          {
            OFFSET 0 -11.08 0
            CHANNELS 6 Xposition Yposition Zposition Zrotation Xrotation Yrotation
            JOINT RightWrist
            {
              OFFSET 0 -9.82 0
              CHANNELS 6 Xposition Yposition Zposition Zrotation Xrotation Yrotation
              End Site
              {
                OFFSET 0 -7.14001 0
              }
            }
          }
        }
      }
      JOINT Neck
      {
        OFFSET 0 4.05 0
        CHANNELS 6 Xposition Yposition Zposition Zrotation Xrotation Yrotation
        JOINT Head
        {
          OFFSET 0 5.19 0
          CHANNELS 6 Xposition Yposition Zposition Zrotation Xrotation Yrotation
          End Site
          {
            OFFSET 0 4.14001 0
          }
        }
      }
    }
  }
}
MOTION
Frames:	8
Frame Time:	0.0333333
15.3963 39.7363 -5.90528 0.436334 2.12288 -1.75886 3.43 9.12756e-010 -1.60032e-011 -0.696654 -5.70165 0.213465 1.57372e-008 -18.47 1.10541e-007 -0.341312 13.1022 0.243457 1.5558e-008 -17.95 3.38894e-008 -0.224034 -10.2075 -0.298432 -3.43 -9.12749e-010 1.60023e-011 -0.759581 -7.53218 0.780586 4.27853e-008 -18.47 -1.42709e-007 0.188684 14.961 -0.135715 -2.59563e-008 -17.95 2.98131e-008 0.605633 -10.6413 0.285112 -1.05168e-009 4.57 4.29798e-011 -0.492478 -1.5529 -0.108954 -1.67976e-009 6.57 2.67812e-010 0.809017 1.63295 -0.374274 1.06 4.19 1.76 1.19383 0.0528519 1.71453 5.81 -5.77685e-010 -2.42139e-010 80.4437 -1.76365 5.69653 -4.70036e-009 -12.08 6.73172e-010 2.61358 -0.00467327 -0.509472 -1.10605e-009 -9.82 -1.29618e-009 2.04282e-010 4.54489e-010 3.27372e-010 -1.06 4.19 1.76 -11.0132 0.116771 -1.19366 -6.06 -5.89036e-008 -4.70616e-010 -75.734 -7.19825 -10.6116 -7.10448e-009 -11.08 -5.62306e-011 -5.82193 -0.00990331 6.77713 -1.10928e-009 -9.82 1.29577e-009 -1.97219 -0.781901 -7.71499 4.66962e-010 4.05 1.19922e-010 -2.85159 -7.01099 2.52709 3.38399e-009 5.19 -2.27068e-010 -0.403228 5.211 2.00589 
15.4056 39.7386 -5.89581 0.584612 1.81168 -1.8565 3.43 9.12756e-010 -1.60032e-011 -0.88066 -5.30544 0.183026 1.57372e-008 -18.47 1.10541e-007 -0.340741 12.9712 0.243329 1.5558e-008 -17.95 3.38894e-008 -0.226282 -10.1707 -0.298397 -3.43 -9.12749e-010 1.60023e-011 -0.956612 -7.28448 0.643576 4.27853e-008 -18.47 -1.42709e-007 0.172806 15.0792 -0.13579 -2.59563e-008 -17.95 2.98131e-008 0.605824 -10.679 0.285148 -1.05168e-009 4.57 4.29798e-011 -0.705612 -1.11144 -0.129729 -1.67976e-009 6.57 2.67812e-010 0.741474 1.36674 -0.366137 1.06 4.19 1.76 1.56423 0.0528535 1.65676 5.81 -5.77685e-010 -2.42139e-010 80.2365 -1.45921 5.62293 -4.70036e-009 -12.08 6.73172e-010 2.64007 -0.00467327 -0.509472 -1.10605e-009 -9.82 -1.29618e-009 2.04282e-010 4.54489e-010 3.27372e-010 -1.06 4.19 1.76 -10.6647 0.063487 -0.670976 -6.06 -5.89036e-008 -4.70616e-010 -75.7524 -6.5808 -10.5075 -7.10448e-009 -11.08 -5.62306e-011 -6.00303 -0.00990327 6.77914 -1.10928e-009 -9.82 1.29577e-009 -1.72534 -0.739451 -8.52478 4.66962e-010 4.05 1.19922e-010 -2.38845 -6.49688 2.46362 3.38399e-009 5.19 -2.27068e-010 -0.778078 4.85532 2.13484 
15.4114 39.74 -5.89373 0.674496 1.4595 -1.87333 3.43 9.12756e-010 -1.60032e-011 -0.987061 -4.91129 0.19599 1.57372e-008 -18.47 1.10541e-007 -0.345616 12.8907 0.24325 1.5558e-008 -17.95 3.38894e-008 -0.233601 -10.1278 -0.298357 -3.43 -9.12749e-010 1.60023e-011 -1.07205 -6.97803 0.542219 4.27853e-008 -18.47 -1.42709e-007 0.135767 15.1685 -0.126268 -2.59563e-008 -17.95 2.98131e-008 0.601249 -10.7186 0.285185 -1.05168e-009 4.57 4.29798e-011 -0.898791 -0.570974 -0.194467 -1.67976e-009 6.57 2.67812e-010 0.732069 1.03384 -0.421119 1.06 4.19 1.76 1.93453 0.052855 1.59924 5.81 -5.77685e-010 -2.42139e-010 80.0557 -1.07558 5.49572 -4.70036e-009 -12.08 6.73172e-010 2.65139 -0.00467327 -0.509472 -1.10605e-009 -9.82 -1.29618e-009 2.04282e-010 4.54489e-010 3.27372e-010 -1.06 4.19 1.76 -10.2666 0.0320898 -0.33595 -6.06 -5.89036e-008 -4.70616e-010 -75.9256 -6.24079 -10.4924 -7.10448e-009 -11.08 -5.62306e-011 -6.10674 -0.00990178 6.85106 -1.10928e-009 -9.82 1.29577e-009 -1.50605 -0.701996 -9.13184 4.66962e-010 4.05 1.19922e-010 -1.97806 -6.01577 2.41087 3.38399e-009 5.19 -2.27068e-010 -1.12134 4.56837 2.25674 
15.4152 39.7385 -5.90348 0.676585 1.24194 -1.8007 3.43 9.12756e-010 -1.60032e-011 -0.986163 -4.72319 0.219055 1.57372e-008 -18.47 1.10541e-007 -0.35114 12.9044 0.243263 1.5558e-008 -17.95 3.38894e-008 -0.237042 -10.0997 -0.298331 -3.43 -9.12749e-010 1.60023e-011 -1.07137 -6.78868 0.514957 4.27853e-008 -18.47 -1.42709e-007 0.106133 15.2188 -0.120308 -2.59563e-008 -17.95 2.98131e-008 0.596178 -10.751 0.285216 -1.05168e-009 4.57 4.29798e-011 -1.02111 -0.216529 -0.275833 -1.67976e-009 6.57 2.67812e-010 0.85515 0.804971 -0.523388 1.06 4.19 1.76 2.06397 0.0528552 1.59058 5.81 -5.77685e-010 -2.42139e-010 80.0707 -0.789727 5.39603 -4.70036e-009 -12.08 6.73172e-010 2.62333 -0.00467327 -0.509472 -1.10605e-009 -9.82 -1.29618e-009 2.04282e-010 4.54489e-010 3.27372e-010 -1.06 4.19 1.76 -10.0768 0.0314893 -0.306911 -6.06 -5.89036e-008 -4.70616e-010 -76.1237 -6.24798 -10.514 -7.10448e-009 -11.08 -5.62306e-011 -6.05426 -0.009906 6.6452 -1.10928e-009 -9.82 1.29577e-009 -1.42129 -0.681701 -9.11323 4.66962e-010 4.05 1.19922e-010 -1.92014 -5.80482 2.40246 3.38399e-009 5.19 -2.27068e-010 -1.20641 4.5084 2.27906 
15.4239 39.7368 -5.91545 0.649042 1.19538 -1.76846 3.43 9.12756e-010 -1.60032e-011 -0.96644 -4.70991 0.222914 1.57372e-008 -18.47 1.10541e-007 -0.354926 12.927 0.243285 1.5558e-008 -17.95 3.38894e-008 -0.239875 -10.0886 -0.298321 -3.43 -9.12749e-010 1.60023e-011 -1.05146 -6.77601 0.516746 4.27853e-008 -18.47 -1.42709e-007 0.10409 15.2602 -0.117168 -2.59563e-008 -17.95 2.98131e-008 0.593548 -10.7657 0.285229 -1.05168e-009 4.57 4.29798e-011 -1.08387 -0.180692 -0.289151 -1.67976e-009 6.57 2.67812e-010 1.08701 0.780875 -0.57938 1.06 4.19 1.76 1.8625 0.0528542 1.63124 5.81 -5.77685e-010 -2.42139e-010 80.3172 -0.716535 5.42307 -4.70036e-009 -12.08 6.73172e-010 2.58792 -0.00467327 -0.509472 -1.10605e-009 -9.82 -1.29618e-009 2.04282e-010 4.54489e-010 3.27372e-010 -1.06 4.19 1.76 -10.2264 0.0409811 -0.426229 -6.06 -5.89036e-008 -4.70616e-010 -76.1332 -6.31441 -10.4781 -7.10448e-009 -11.08 -5.62306e-011 -5.94241 -0.00991676 6.0876 -1.10928e-009 -9.82 1.29577e-009 -1.43377 -0.673805 -8.68819 4.66962e-010 4.05 1.19922e-010 -2.26775 -5.85301 2.4303 3.38399e-009 5.19 -2.27068e-010 -1.01767 4.6295 2.17444 
15.4383 39.7373 -5.92122 0.645203 1.18059 -1.84373 3.43 9.12756e-010 -1.60032e-011 -0.993946 -4.68552 0.220342 1.57372e-008 -18.47 1.10541e-007 -0.356548 12.9001 0.243259 1.5558e-008 -17.95 3.38894e-008 -0.242097 -10.0827 -0.298316 -3.43 -9.12749e-010 1.60023e-011 -1.08808 -6.81515 0.495781 4.27853e-008 -18.47 -1.42709e-007 0.112471 15.3248 -0.115325 -2.59563e-008 -17.95 2.98131e-008 0.591452 -10.7734 0.285237 -1.05168e-009 4.57 4.29798e-011 -1.13063 -0.272142 -0.220486 -1.67976e-009 6.57 2.67812e-010 1.3225 0.855818 -0.552928 1.06 4.19 1.76 1.54152 0.0528535 1.65715 5.81 -5.77685e-010 -2.42139e-010 80.5981 -0.763815 5.5511 -4.70036e-009 -12.08 6.73172e-010 2.58793 -0.00467327 -0.509472 -1.10605e-009 -9.82 -1.29618e-009 2.04282e-010 4.54489e-010 3.27372e-010 -1.06 4.19 1.76 -10.5076 0.0468789 -0.499012 -6.06 -5.89036e-008 -4.70616e-010 -75.9714 -6.23311 -10.4213 -7.10448e-009 -11.08 -5.62306e-011 -5.93346 -0.00992456 5.64903 -1.10928e-009 -9.82 1.29577e-009 -1.40291 -0.660838 -8.46987 4.66962e-010 4.05 1.19922e-010 -2.72144 -5.91502 2.45639 3.38399e-009 5.19 -2.27068e-010 -0.798138 4.7439 2.0343 
15.4516 39.7379 -5.92849 0.644111 1.12647 -1.89722 3.43 9.12756e-010 -1.60032e-011 -1.02632 -4.63236 0.215565 1.57372e-008 -18.47 1.10541e-007 -0.352758 12.8849 0.243244 1.5558e-008 -17.95 3.38894e-008 -0.243757 -10.0798 -0.298313 -3.43 -9.12749e-010 1.60023e-011 -1.13094 -6.80875 0.467021 4.27853e-008 -18.47 -1.42709e-007 0.120741 15.3781 -0.114288 -2.59563e-008 -17.95 2.98131e-008 0.589847 -10.7769 0.28524 -1.05168e-009 4.57 4.29798e-011 -1.1696 -0.300626 -0.162676 -1.67976e-009 6.57 2.67812e-010 1.49078 0.884737 -0.524873 1.06 4.19 1.76 1.36013 0.052854 1.6369 5.81 -5.77685e-010 -2.42139e-010 80.6959 -0.815649 5.66348 -4.70036e-009 -12.08 6.73172e-010 2.62284 -0.00467327 -0.509472 -1.10605e-009 -9.82 -1.29618e-009 2.04282e-010 4.54489e-010 3.27372e-010 -1.06 4.19 1.76 -10.6395 0.0493894 -0.521079 -6.06 -5.89036e-008 -4.70616e-010 -75.8444 -6.10775 -10.4342 -7.10448e-009 -11.08 -5.62306e-011 -6.02909 -0.00992497 5.62539 -1.10928e-009 -9.82 1.29577e-009 -1.29096 -0.636893 -8.57875 4.66962e-010 4.05 1.19922e-010 -2.99271 -5.87865 2.47084 3.38399e-009 5.19 -2.27068e-010 -0.725877 4.79061 1.96228 
15.4602 39.7353 -5.94466 0.64197 1.05924 -1.81198 3.43 9.12756e-010 -1.60032e-011 -1.03319 -4.62852 0.204312 1.57372e-008 -18.47 1.10541e-007 -0.347709 12.9416 0.2433 1.5558e-008 -17.95 3.38894e-008 -0.244909 -10.0788 -0.298312 -3.43 -9.12749e-010 1.60023e-011 -1.12636 -6.75742 0.458073 4.27853e-008 -18.47 -1.42709e-007 0.122255 15.3836 -0.113632 -2.59563e-008 -17.95 2.98131e-008 0.588689 -10.7782 0.285241 -1.05168e-009 4.57 4.29798e-011 -1.18973 -0.241811 -0.185246 -1.67976e-009 6.57 2.67812e-010 1.58077 0.82317 -0.564411 1.06 4.19 1.76 1.36399 0.052855 1.59873 5.81 -5.77685e-010 -2.42139e-010 80.5973 -0.866472 5.68965 -4.70036e-009 -12.08 6.73172e-010 2.66557 -0.00467327 -0.512272 -1.10605e-009 -9.82 -1.29618e-009 2.04282e-010 4.54489e-010 3.27372e-010 -1.06 4.19 1.76 -10.5703 0.051587 -0.547215 -6.06 -5.89036e-008 -4.70616e-010 -75.8408 -6.03736 -10.4576 -7.10448e-009 -11.08 -5.62306e-011 -6.10002 -0.00992405 5.67896 -1.10928e-009 -9.82 1.29577e-009 -1.17825 -0.611854 -8.64684 4.66962e-010 4.05 1.19922e-010 -3.04803 -5.80217 2.49004 3.38399e-009 5.19 -2.27068e-010 -0.768841 4.82724 1.97659 
